<svg id="Layer_1" data-name="Layer 1" xmlns="http://www.w3.org/2000/svg" xmlns:xlink="http://www.w3.org/1999/xlink" viewBox="0 0 298.24 406.76"><defs><style>.cls-1{fill:url(#linear-gradient);}.cls-2{fill:url(#linear-gradient-2);}.cls-3{fill:url(#linear-gradient-3);}</style><linearGradient id="linear-gradient" x1="-26.89" y1="146.39" x2="317.92" y2="146.39" gradientUnits="userSpaceOnUse"><stop offset="0" stop-color="#43cbdb"/><stop offset="1" stop-color="#9df1fe"/></linearGradient><linearGradient id="linear-gradient-2" x1="240.28" y1="194.49" x2="351.72" y2="340.49" gradientUnits="userSpaceOnUse"><stop offset="0" stop-color="#00d4df"/><stop offset="1" stop-color="#008eb9"/></linearGradient><linearGradient id="linear-gradient-3" x1="158.34" y1="126.49" x2="384.72" y2="364.52" gradientUnits="userSpaceOnUse"><stop offset="0" stop-color="#008eb9"/><stop offset="1" stop-color="#00d4df"/></linearGradient></defs><title>logo12</title><ellipse class="cls-1" cx="146" cy="146.39" rx="146" ry="146.39"/><path class="cls-2" d="M402,196.34c0-4.14-.21-8.23-.55-12.28-11.89-19.78-33.62-29.54-69.61-23.84s-77.74,36.12-77.74,36.12l-143.76-9.5c-.2,3.14-.34,6.3-.34,9.5,0,80.85,65.37,146.39,146,146.39S402,277.19,402,196.34Z" transform="translate(-110 -49.95)"/><path class="cls-3" d="M401.91,203.39c-17.23,33.65-35.87,31.89-64.29,31-29.39-1-89.12-41.82-89.12-41.82s-41.71-38-87.22-36.12C119.1,158.18,111.14,187.7,110.2,192c0,1.44-.11,2.88-.11,4.34,0,80.85,65.37,146.39,146,146.39C334.36,342.73,398.24,281,401.91,203.39Z" transform="translate(-110 -49.95)"/><path d="M113.19,374h52.55v14.76H130v27H162.5v15H130v24.84h-16.8Z" transform="translate(-110 -49.95)"/><path d="M179.9,374h16.8v66.84h37v14.76H179.9Z" transform="translate(-110 -49.95)"/><path d="M243.85,426.11V374h16.8v51.12c0,11.88,5.16,16.44,16.32,16.44s16.08-4.56,16.08-16.44V374h16.8v52.08c0,20.64-14.28,30.6-32.88,30.6C258.13,456.71,243.85,446.75,243.85,426.11Z" transform="translate(-110 -49.95)"/><path d="M323.76,414.83c0-24.12,18.72-41.88,42.24-41.88s42.24,17.76,42.24,41.88S389.52,456.71,366,456.71,323.76,439,323.76,414.83Zm67.2,0c0-15.24-10.08-26.88-25-26.88s-25,11.64-25,26.88,10.08,26.88,25,26.88S391,430.07,391,414.83Z" transform="translate(-110 -49.95)"/></svg>