<svg id="Layer_1" data-name="Layer 1" xmlns="http://www.w3.org/2000/svg" xmlns:xlink="http://www.w3.org/1999/xlink" viewBox="0 0 512 512"><defs><style>.cls-1{fill:url(#linear-gradient);}.cls-2{fill:url(#linear-gradient-2);}.cls-3{fill:url(#linear-gradient-3);}</style><linearGradient id="linear-gradient" x1="33.38" y1="248.5" x2="477.38" y2="248.5" gradientUnits="userSpaceOnUse"><stop offset="0" stop-color="#43cbdb"/><stop offset="1" stop-color="#9df1fe"/></linearGradient><linearGradient id="linear-gradient-2" x1="235.76" y1="246.11" x2="379.26" y2="434.11" gradientUnits="userSpaceOnUse"><stop offset="0" stop-color="#00d4df"/><stop offset="1" stop-color="#008eb9"/></linearGradient><linearGradient id="linear-gradient-3" x1="130.25" y1="158.56" x2="421.75" y2="465.06" gradientUnits="userSpaceOnUse"><stop offset="0" stop-color="#008eb9"/><stop offset="1" stop-color="#00d4df"/></linearGradient></defs><title>Artboard 1</title><ellipse class="cls-1" cx="256" cy="248.5" rx="188" ry="188.5"/><path class="cls-2" d="M444,248.5c0-5.33-.28-10.59-.71-15.81C428,207.22,400,194.65,353.66,202s-100.1,46.51-100.1,46.51L68.44,236.26c-.26,4.05-.44,8.12-.44,12.24C68,352.61,152.17,437,256,437S444,352.61,444,248.5Z"/><path class="cls-3" d="M443.89,257.58c-22.2,43.32-46.19,41.06-82.79,39.88-37.84-1.22-114.75-53.86-114.75-53.86s-53.72-49-112.31-46.51c-54.33,2.27-64.58,40.28-65.78,45.82-.06,1.86-.15,3.71-.15,5.59,0,104.11,84.18,188.5,188,188.5C356.91,437,439.16,357.47,443.89,257.58Z"/></svg>